<svg xmlns="http://www.w3.org/2000/svg" width="640" height="640"><rect x="0" y="560" width="80" height="80" style="fill:rgb(30,30,30)"/><rect x="0" y="480" width="80" height="80" style="fill:rgb(240,230,200)"/><rect x="0" y="400" width="80" height="80" style="fill:rgb(30,30,30)"/><rect x="0" y="320" width="80" height="80" style="fill:rgb(240,230,200)"/><rect x="0" y="240" width="80" height="80" style="fill:rgb(30,30,30)"/><rect x="0" y="160" width="80" height="80" style="fill:rgb(240,230,200)"/><rect x="0" y="80" width="80" height="80" style="fill:rgb(30,30,30)"/><rect x="0" y="0" width="80" height="80" style="fill:rgb(240,230,200)"/><rect x="80" y="560" width="80" height="80" style="fill:rgb(240,230,200)"/><rect x="80" y="480" width="80" height="80" style="fill:rgb(30,30,30)"/><rect x="80" y="400" width="80" height="80" style="fill:rgb(240,230,200)"/><rect x="80" y="320" width="80" height="80" style="fill:rgb(30,30,30)"/><rect x="80" y="240" width="80" height="80" style="fill:rgb(240,230,200)"/><rect x="80" y="160" width="80" height="80" style="fill:rgb(30,30,30)"/><rect x="80" y="80" width="80" height="80" style="fill:rgb(240,230,200)"/><rect x="80" y="0" width="80" height="80" style="fill:rgb(30,30,30)"/><rect x="160" y="560" width="80" height="80" style="fill:rgb(30,30,30)"/><rect x="160" y="480" width="80" height="80" style="fill:rgb(240,230,200)"/><rect x="160" y="400" width="80" height="80" style="fill:rgb(30,30,30)"/><rect x="160" y="320" width="80" height="80" style="fill:rgb(240,230,200)"/><rect x="160" y="240" width="80" height="80" style="fill:rgb(30,30,30)"/><rect x="160" y="160" width="80" height="80" style="fill:rgb(240,230,200)"/><rect x="160" y="80" width="80" height="80" style="fill:rgb(30,30,30)"/><rect x="160" y="0" width="80" height="80" style="fill:rgb(240,230,200)"/><rect x="240" y="560" width="80" height="80" style="fill:rgb(240,230,200)"/><rect x="240" y="480" width="80" height="80" style="fill:rgb(30,30,30)"/><rect x="240" y="400" width="80" height="80" style="fill:rgb(240,230,200)"/><rect x="240" y="320" width="80" height="80" style="fill:rgb(30,30,30)"/><rect x="240" y="240" width="80" height="80" style="fill:rgb(240,230,200)"/><rect x="240" y="160" width="80" height="80" style="fill:rgb(30,30,30)"/><rect x="240" y="80" width="80" height="80" style="fill:rgb(240,230,200)"/><rect x="240" y="0" width="80" height="80" style="fill:rgb(30,30,30)"/><rect x="320" y="560" width="80" height="80" style="fill:rgb(30,30,30)"/><rect x="320" y="480" width="80" height="80" style="fill:rgb(240,230,200)"/><rect x="320" y="400" width="80" height="80" style="fill:rgb(30,30,30)"/><rect x="320" y="320" width="80" height="80" style="fill:rgb(240,230,200)"/><rect x="320" y="240" width="80" height="80" style="fill:rgb(30,30,30)"/><rect x="320" y="160" width="80" height="80" style="fill:rgb(240,230,200)"/><rect x="320" y="80" width="80" height="80" style="fill:rgb(30,30,30)"/><rect x="320" y="0" width="80" height="80" style="fill:rgb(240,230,200)"/><rect x="400" y="560" width="80" height="80" style="fill:rgb(240,230,200)"/><rect x="400" y="480" width="80" height="80" style="fill:rgb(30,30,30)"/><rect x="400" y="400" width="80" height="80" style="fill:rgb(240,230,200)"/><rect x="400" y="320" width="80" height="80" style="fill:rgb(30,30,30)"/><rect x="400" y="240" width="80" height="80" style="fill:rgb(240,230,200)"/><rect x="400" y="160" width="80" height="80" style="fill:rgb(30,30,30)"/><rect x="400" y="80" width="80" height="80" style="fill:rgb(240,230,200)"/><rect x="400" y="0" width="80" height="80" style="fill:rgb(30,30,30)"/><rect x="480" y="560" width="80" height="80" style="fill:rgb(30,30,30)"/><rect x="480" y="480" width="80" height="80" style="fill:rgb(240,230,200)"/><rect x="480" y="400" width="80" height="80" style="fill:rgb(30,30,30)"/><rect x="480" y="320" width="80" height="80" style="fill:rgb(240,230,200)"/><rect x="480" y="240" width="80" height="80" style="fill:rgb(30,30,30)"/><rect x="480" y="160" width="80" height="80" style="fill:rgb(240,230,200)"/><rect x="480" y="80" width="80" height="80" style="fill:rgb(30,30,30)"/><rect x="480" y="0" width="80" height="80" style="fill:rgb(240,230,200)"/><rect x="560" y="560" width="80" height="80" style="fill:rgb(240,230,200)"/><rect x="560" y="480" width="80" height="80" style="fill:rgb(30,30,30)"/><rect x="560" y="400" width="80" height="80" style="fill:rgb(240,230,200)"/><rect x="560" y="320" width="80" height="80" style="fill:rgb(30,30,30)"/><rect x="560" y="240" width="80" height="80" style="fill:rgb(240,230,200)"/><rect x="560" y="160" width="80" height="80" style="fill:rgb(30,30,30)"/><rect x="560" y="80" width="80" height="80" style="fill:rgb(240,230,200)"/><rect x="560" y="0" width="80" height="80" style="fill:rgb(30,30,30)"/><line x1="358.0" y1="120.0" x2="358.0" y2="200.0" stroke="rgb(75, 70, 65)" stroke-width="4.0" stroke-linecap="round"/><line x1="278.0" y1="120.0" x2="278.0" y2="280.0" stroke="rgb(75, 70, 65)" stroke-width="4.0" stroke-linecap="round"/><line x1="518.2111456180002" y1="40.89442719099992" x2="438.21114561800016" y2="200.89442719099992" stroke="rgb(75, 70, 65)" stroke-width="4.0" stroke-linecap="round"/><line x1="438.5857864376269" y1="41.41421356237309" x2="358.5857864376269" y2="121.41421356237309" stroke="rgb(75, 70, 65)" stroke-width="4.0" stroke-linecap="round"/><line x1="360.0" y1="42.0" x2="520.0" y2="42.0" stroke="rgb(75, 70, 65)" stroke-width="4.0" stroke-linecap="round"/><line x1="598.0" y1="120.0" x2="598.0" y2="200.0" stroke="rgb(75, 70, 65)" stroke-width="4.0" stroke-linecap="round"/><line x1="118.0" y1="120.0" x2="118.0" y2="200.0" stroke="rgb(75, 70, 65)" stroke-width="4.0" stroke-linecap="round"/><line x1="439.1055728090001" y1="201.78885438199984" x2="279.1055728090001" y2="281.78885438199984" stroke="rgb(75, 70, 65)" stroke-width="4.0" stroke-linecap="round"/><line x1="278.5857864376269" y1="41.41421356237309" x2="358.5857864376269" y2="121.41421356237309" stroke="rgb(75, 70, 65)" stroke-width="4.0" stroke-linecap="round"/><line x1="358.5857864376269" y1="201.4142135623731" x2="278.5857864376269" y2="281.4142135623731" stroke="rgb(75, 70, 65)" stroke-width="4.0" stroke-linecap="round"/><line x1="198.5857864376269" y1="41.41421356237309" x2="358.5857864376269" y2="201.4142135623731" stroke="rgb(75, 70, 65)" stroke-width="4.0" stroke-linecap="round"/><line x1="198.0" y1="120.0" x2="198.0" y2="280.0" stroke="rgb(75, 70, 65)" stroke-width="4.0" stroke-linecap="round"/><line x1="440.0" y1="42.0" x2="200.0" y2="42.0" stroke="rgb(75, 70, 65)" stroke-width="4.0" stroke-linecap="round"/><line x1="38.0" y1="120.0" x2="38.0" y2="200.0" stroke="rgb(75, 70, 65)" stroke-width="4.0" stroke-linecap="round"/><line x1="118.58578643762691" y1="201.4142135623731" x2="198.5857864376269" y2="281.4142135623731" stroke="rgb(75, 70, 65)" stroke-width="4.0" stroke-linecap="round"/><line x1="38.0" y1="40.0" x2="38.0" y2="120.0" stroke="rgb(75, 70, 65)" stroke-width="4.0" stroke-linecap="round"/><line x1="119.10557280900008" y1="41.78885438199983" x2="279.1055728090001" y2="121.78885438199984" stroke="rgb(75, 70, 65)" stroke-width="4.0" stroke-linecap="round"/><line x1="358.5857864376269" y1="121.41421356237309" x2="438.5857864376269" y2="41.41421356237309" stroke="rgb(75, 70, 65)" stroke-width="4.0" stroke-linecap="round"/><line x1="438.5857864376269" y1="121.41421356237309" x2="358.5857864376269" y2="201.4142135623731" stroke="rgb(75, 70, 65)" stroke-width="4.0" stroke-linecap="round"/><line x1="278.0" y1="280.0" x2="278.0" y2="360.0" stroke="rgb(75, 70, 65)" stroke-width="4.0" stroke-linecap="round"/><line x1="438.5857864376269" y1="41.41421356237309" x2="358.5857864376269" y2="121.41421356237309" stroke="rgb(75, 70, 65)" stroke-width="4.0" stroke-linecap="round"/><line x1="200.0" y1="42.0" x2="120.0" y2="42.0" stroke="rgb(75, 70, 65)" stroke-width="4.0" stroke-linecap="round"/><line x1="520.0" y1="42.0" x2="600.0" y2="42.0" stroke="rgb(75, 70, 65)" stroke-width="4.0" stroke-linecap="round"/><line x1="279.1055728090001" y1="121.78885438199984" x2="439.1055728090001" y2="41.78885438199983" stroke="rgb(75, 70, 65)" stroke-width="4.0" stroke-linecap="round"/><line x1="38.0" y1="200.0" x2="38.0" y2="280.0" stroke="rgb(75, 70, 65)" stroke-width="4.0" stroke-linecap="round"/><line x1="358.5857864376269" y1="201.4142135623731" x2="438.5857864376269" y2="281.4142135623731" stroke="rgb(75, 70, 65)" stroke-width="4.0" stroke-linecap="round"/><line x1="439.1055728090001" y1="41.78885438199983" x2="599.105572809" y2="121.78885438199984" stroke="rgb(75, 70, 65)" stroke-width="4.0" stroke-linecap="round"/><line x1="358.5857864376269" y1="121.41421356237309" x2="278.5857864376269" y2="41.41421356237309" stroke="rgb(75, 70, 65)" stroke-width="4.0" stroke-linecap="round"/><line x1="40.0" y1="122.0" x2="360.0" y2="122.0" stroke="rgb(75, 70, 65)" stroke-width="4.0" stroke-linecap="round"/><line x1="118.0" y1="40.0" x2="118.0" y2="120.0" stroke="rgb(75, 70, 65)" stroke-width="4.0" stroke-linecap="round"/><line x1="120.0" y1="122.0" x2="200.0" y2="122.0" stroke="rgb(75, 70, 65)" stroke-width="4.0" stroke-linecap="round"/><line x1="280.0" y1="42.0" x2="360.0" y2="42.0" stroke="rgb(75, 70, 65)" stroke-width="4.0" stroke-linecap="round"/><line x1="360.0" y1="42.0" x2="280.0" y2="42.0" stroke="rgb(75, 70, 65)" stroke-width="4.0" stroke-linecap="round"/><line x1="280.0" y1="42.0" x2="360.0" y2="42.0" stroke="rgb(75, 70, 65)" stroke-width="4.0" stroke-linecap="round"/><line x1="360.0" y1="42.0" x2="280.0" y2="42.0" stroke="rgb(75, 70, 65)" stroke-width="4.0" stroke-linecap="round"/><line x1="280.0" y1="42.0" x2="360.0" y2="42.0" stroke="rgb(75, 70, 65)" stroke-width="4.0" stroke-linecap="round"/><line x1="599.105572809" y1="121.78885438199984" x2="439.1055728090001" y2="201.78885438199984" stroke="rgb(75, 70, 65)" stroke-width="4.0" stroke-linecap="round"/><line x1="518.5857864376269" y1="121.41421356237309" x2="438.5857864376269" y2="201.4142135623731" stroke="rgb(75, 70, 65)" stroke-width="4.0" stroke-linecap="round"/><line x1="600.0" y1="42.0" x2="520.0" y2="42.0" stroke="rgb(75, 70, 65)" stroke-width="4.0" stroke-linecap="round"/><line x1="520.0" y1="42.0" x2="600.0" y2="42.0" stroke="rgb(75, 70, 65)" stroke-width="4.0" stroke-linecap="round"/><line x1="202.0" y1="520.0" x2="202.0" y2="360.0" stroke="rgb(220, 130, 50)" stroke-width="4.0" stroke-linecap="round"/><line x1="521.7888543819998" y1="599.105572809" x2="441.78885438199984" y2="439.1055728090001" stroke="rgb(220, 130, 50)" stroke-width="4.0" stroke-linecap="round"/><line x1="282.0" y1="520.0" x2="282.0" y2="360.0" stroke="rgb(220, 130, 50)" stroke-width="4.0" stroke-linecap="round"/><line x1="121.78885438199984" y1="599.105572809" x2="201.78885438199984" y2="439.1055728090001" stroke="rgb(220, 130, 50)" stroke-width="4.0" stroke-linecap="round"/><line x1="201.4142135623731" y1="598.5857864376269" x2="521.4142135623731" y2="278.5857864376269" stroke="rgb(220, 130, 50)" stroke-width="4.0" stroke-linecap="round"/><line x1="362.0" y1="520.0" x2="362.0" y2="440.0" stroke="rgb(220, 130, 50)" stroke-width="4.0" stroke-linecap="round"/><line x1="521.4142135623731" y1="278.5857864376269" x2="601.4142135623731" y2="358.5857864376269" stroke="rgb(220, 130, 50)" stroke-width="4.0" stroke-linecap="round"/><line x1="201.4142135623731" y1="358.5857864376269" x2="281.4142135623731" y2="278.5857864376269" stroke="rgb(220, 130, 50)" stroke-width="4.0" stroke-linecap="round"/><line x1="601.4142135623731" y1="358.5857864376269" x2="361.4142135623731" y2="118.58578643762691" stroke="rgb(220, 130, 50)" stroke-width="4.0" stroke-linecap="round"/><line x1="201.78885438199984" y1="439.1055728090001" x2="281.78885438199984" y2="279.1055728090001" stroke="rgb(220, 130, 50)" stroke-width="4.0" stroke-linecap="round"/><line x1="40.0" y1="598.0" x2="200.0" y2="598.0" stroke="rgb(220, 130, 50)" stroke-width="4.0" stroke-linecap="round"/><line x1="281.4142135623731" y1="598.5857864376269" x2="41.41421356237309" y2="358.5857864376269" stroke="rgb(220, 130, 50)" stroke-width="4.0" stroke-linecap="round"/><line x1="42.0" y1="360.0" x2="42.0" y2="440.0" stroke="rgb(220, 130, 50)" stroke-width="4.0" stroke-linecap="round"/><line x1="441.4142135623731" y1="598.5857864376269" x2="121.41421356237309" y2="278.5857864376269" stroke="rgb(220, 130, 50)" stroke-width="4.0" stroke-linecap="round"/><line x1="281.4142135623731" y1="358.5857864376269" x2="201.4142135623731" y2="278.5857864376269" stroke="rgb(220, 130, 50)" stroke-width="4.0" stroke-linecap="round"/><line x1="360.0" y1="598.0" x2="520.0" y2="598.0" stroke="rgb(220, 130, 50)" stroke-width="4.0" stroke-linecap="round"/><line x1="121.41421356237309" y1="278.5857864376269" x2="361.4142135623731" y2="518.5857864376269" stroke="rgb(220, 130, 50)" stroke-width="4.0" stroke-linecap="round"/><line x1="440.8944271909999" y1="438.21114561800016" x2="280.8944271909999" y2="358.21114561800016" stroke="rgb(220, 130, 50)" stroke-width="4.0" stroke-linecap="round"/><line x1="281.78885438199984" y1="359.1055728090001" x2="361.78885438199984" y2="199.10557280900008" stroke="rgb(220, 130, 50)" stroke-width="4.0" stroke-linecap="round"/><line x1="362.0" y1="440.0" x2="362.0" y2="360.0" stroke="rgb(220, 130, 50)" stroke-width="4.0" stroke-linecap="round"/><line x1="442.0" y1="520.0" x2="442.0" y2="360.0" stroke="rgb(220, 130, 50)" stroke-width="4.0" stroke-linecap="round"/><line x1="362.0" y1="360.0" x2="362.0" y2="280.0" stroke="rgb(220, 130, 50)" stroke-width="4.0" stroke-linecap="round"/><line x1="361.4142135623731" y1="518.5857864376269" x2="201.4142135623731" y2="358.5857864376269" stroke="rgb(220, 130, 50)" stroke-width="4.0" stroke-linecap="round"/><line x1="40.0" y1="438.0" x2="600.0" y2="438.0" stroke="rgb(220, 130, 50)" stroke-width="4.0" stroke-linecap="round"/><line x1="122.0" y1="520.0" x2="122.0" y2="440.0" stroke="rgb(220, 130, 50)" stroke-width="4.0" stroke-linecap="round"/><line x1="442.0" y1="360.0" x2="442.0" y2="280.0" stroke="rgb(220, 130, 50)" stroke-width="4.0" stroke-linecap="round"/><line x1="442.0" y1="600.0" x2="442.0" y2="280.0" stroke="rgb(220, 130, 50)" stroke-width="4.0" stroke-linecap="round"/><line x1="200.0" y1="598.0" x2="440.0" y2="598.0" stroke="rgb(220, 130, 50)" stroke-width="4.0" stroke-linecap="round"/><line x1="600.0" y1="438.0" x2="520.0" y2="438.0" stroke="rgb(220, 130, 50)" stroke-width="4.0" stroke-linecap="round"/><line x1="602.0" y1="520.0" x2="602.0" y2="360.0" stroke="rgb(220, 130, 50)" stroke-width="4.0" stroke-linecap="round"/><line x1="362.0" y1="280.0" x2="362.0" y2="200.0" stroke="rgb(220, 130, 50)" stroke-width="4.0" stroke-linecap="round"/><line x1="521.4142135623731" y1="438.5857864376269" x2="361.4142135623731" y2="278.5857864376269" stroke="rgb(220, 130, 50)" stroke-width="4.0" stroke-linecap="round"/><line x1="42.0" y1="520.0" x2="42.0" y2="360.0" stroke="rgb(220, 130, 50)" stroke-width="4.0" stroke-linecap="round"/><line x1="442.0" y1="600.0" x2="442.0" y2="520.0" stroke="rgb(220, 130, 50)" stroke-width="4.0" stroke-linecap="round"/><line x1="442.0" y1="520.0" x2="442.0" y2="440.0" stroke="rgb(220, 130, 50)" stroke-width="4.0" stroke-linecap="round"/><line x1="201.4142135623731" y1="358.5857864376269" x2="281.4142135623731" y2="438.5857864376269" stroke="rgb(220, 130, 50)" stroke-width="4.0" stroke-linecap="round"/><line x1="362.0" y1="280.0" x2="362.0" y2="360.0" stroke="rgb(220, 130, 50)" stroke-width="4.0" stroke-linecap="round"/><line x1="442.0" y1="280.0" x2="442.0" y2="200.0" stroke="rgb(220, 130, 50)" stroke-width="4.0" stroke-linecap="round"/><line x1="442.0" y1="440.0" x2="442.0" y2="200.0" stroke="rgb(220, 130, 50)" stroke-width="4.0" stroke-linecap="round"/><line x1="281.4142135623731" y1="438.5857864376269" x2="201.4142135623731" y2="358.5857864376269" stroke="rgb(220, 130, 50)" stroke-width="4.0" stroke-linecap="round"/><line x1="360.0" y1="358.0" x2="440.0" y2="358.0" stroke="rgb(220, 130, 50)" stroke-width="4.0" stroke-linecap="round"/><circle cx="40" cy="600" r="16.0" stroke="rgb(220, 130, 50)" stroke-width="8.0"/><path fill="rgb(220, 130, 50)" d="M 40.0 584.0 A 16.0 16.0 0 0 1 55.988258896812965 600.6128437390406 L 40 600"/><path fill="rgb(240,230,200)" d="M 55.988258896812965 600.6128437390406 A 16.0 16.0 0 1 1 39.99999999999999 584.0 L 40 600"/><circle cx="120" cy="600" r="16.0" stroke="rgb(220, 130, 50)" stroke-width="8.0"/><path fill="rgb(220, 130, 50)" d="M 120.0 584.0 A 16.0 16.0 0 0 1 128.17629887115376 586.2468862882048 L 120 600"/><path fill="rgb(240,230,200)" d="M 128.17629887115376 586.2468862882048 A 16.0 16.0 0 1 1 120.0 584.0 L 120 600"/><circle cx="200" cy="600" r="16.0" stroke="rgb(220, 130, 50)" stroke-width="8.0"/><path fill="rgb(220, 130, 50)" d="M 200.0 584.0 A 16.0 16.0 0 0 1 210.17987907722497 587.6561731228489 L 200 600"/><path fill="rgb(240,230,200)" d="M 210.17987907722497 587.6561731228489 A 16.0 16.0 0 0 1 215.98825889681297 600.6128437390406 L 200 600"/><path fill="rgb(220, 130, 50)" d="M 215.98825889681297 600.6128437390406 A 16.0 16.0 0 0 1 185.9438039854249 607.6435170961962 L 200 600"/><path fill="rgb(240,230,200)" d="M 185.9438039854249 607.6435170961962 A 16.0 16.0 0 0 1 200.0 584.0 L 200 600"/><circle cx="280" cy="600" r="16.0" stroke="rgb(220, 130, 50)" stroke-width="8.0"/><path fill="rgb(220, 130, 50)" d="M 280.0 584.0 A 16.0 16.0 0 0 1 295.7073331199497 603.0462577466348 L 280 600"/><path fill="rgb(240,230,200)" d="M 295.7073331199497 603.0462577466348 A 16.0 16.0 0 1 1 280.0 584.0 L 280 600"/><circle cx="360" cy="600" r="16.0" stroke="rgb(220, 130, 50)" stroke-width="8.0"/><path fill="rgb(220, 130, 50)" d="M 360.0 584.0 A 16.0 16.0 0 0 1 371.0949200126759 611.5283454976126 L 360 600"/><path fill="rgb(240,230,200)" d="M 371.0949200126759 611.5283454976126 A 16.0 16.0 0 1 1 360.0 584.0 L 360 600"/><circle cx="440" cy="600" r="16.0" stroke="rgb(220, 130, 50)" stroke-width="8.0"/><path fill="rgb(220, 130, 50)" d="M 440.0 584.0 A 16.0 16.0 0 0 1 454.0561960145751 607.6435170961962 L 440 600"/><path fill="rgb(240,230,200)" d="M 454.0561960145751 607.6435170961962 A 16.0 16.0 0 0 1 451.0949200126759 611.5283454976126 L 440 600"/><path fill="rgb(220, 130, 50)" d="M 451.0949200126759 611.5283454976126 A 16.0 16.0 0 0 1 427.27531405962515 609.6996065754662 L 440 600"/><path fill="rgb(240,230,200)" d="M 427.27531405962515 609.6996065754662 A 16.0 16.0 0 0 1 425.9438039854249 607.6435170961962 L 440 600"/><path fill="rgb(220, 130, 50)" d="M 425.9438039854249 607.6435170961962 A 16.0 16.0 0 0 1 425.3999421363752 593.4549018052586 L 440 600"/><path fill="rgb(240,230,200)" d="M 425.3999421363752 593.4549018052586 A 16.0 16.0 0 0 1 440.0 584.0 L 440 600"/><circle cx="520" cy="600" r="16.0" stroke="rgb(220, 130, 50)" stroke-width="8.0"/><path fill="rgb(220, 130, 50)" d="M 520.0 584.0 A 16.0 16.0 0 0 1 523.6456561424502 584.4208732179555 L 520 600"/><path fill="rgb(240,230,200)" d="M 523.6456561424502 584.4208732179555 A 16.0 16.0 0 0 1 531.0949200126759 611.5283454976126 L 520 600"/><path fill="rgb(220, 130, 50)" d="M 531.0949200126759 611.5283454976126 A 16.0 16.0 0 1 1 520.0 584.0 L 520 600"/><circle cx="600" cy="600" r="16.0" stroke="rgb(220, 130, 50)" stroke-width="8.0"/><path fill="rgb(220, 130, 50)" d="M 600.0 584.0 A 16.0 16.0 0 0 1 611.0949200126759 611.5283454976126 L 600 600"/><path fill="rgb(240,230,200)" d="M 611.0949200126759 611.5283454976126 A 16.0 16.0 0 1 1 600.0 584.0 L 600 600"/><circle cx="40" cy="520" r="16.0" stroke="rgb(220, 130, 50)" stroke-width="8.0"/><path fill="rgb(220, 130, 50)" d="M 40.0 504.0 A 16.0 16.0 0 1 1 24.57194407274974 515.7602959648534 L 40 520"/><path fill="rgb(240,230,200)" d="M 24.57194407274974 515.7602959648534 A 16.0 16.0 0 0 1 39.99999999999999 504.0 L 40 520"/><circle cx="120" cy="520" r="16.0" stroke="rgb(220, 130, 50)" stroke-width="8.0"/><path fill="rgb(220, 130, 50)" d="M 120.0 504.0 A 16.0 16.0 0 1 1 110.79490143650207 533.0868697722675 L 120 520"/><path fill="rgb(240,230,200)" d="M 110.79490143650207 533.0868697722675 A 16.0 16.0 0 0 1 120.0 504.0 L 120 520"/><circle cx="200" cy="520" r="16.0" stroke="rgb(220, 130, 50)" stroke-width="8.0"/><path fill="rgb(220, 130, 50)" d="M 200.0 504.0 A 16.0 16.0 0 0 1 201.22478804538392 504.04694718106015 L 200 520"/><path fill="rgb(240,230,200)" d="M 201.22478804538392 504.04694718106015 A 16.0 16.0 0 1 1 200.0 504.0 L 200 520"/><circle cx="280" cy="520" r="16.0" stroke="rgb(220, 130, 50)" stroke-width="8.0"/><path fill="rgb(220, 130, 50)" d="M 280.0 504.0 A 16.0 16.0 0 0 1 285.9810731494523 505.15996078236645 L 280 520"/><path fill="rgb(240,230,200)" d="M 285.9810731494523 505.15996078236645 A 16.0 16.0 0 1 1 280.0 504.0 L 280 520"/><circle cx="360" cy="520" r="16.0" stroke="rgb(220, 130, 50)" stroke-width="8.0"/><path fill="rgb(220, 130, 50)" d="M 360.0 504.0 A 16.0 16.0 0 0 1 371.9448515457914 509.3547887973509 L 360 520"/><path fill="rgb(240,230,200)" d="M 371.9448515457914 509.3547887973509 A 16.0 16.0 0 0 1 369.2050985634979 533.0868697722675 L 360 520"/><path fill="rgb(220, 130, 50)" d="M 369.2050985634979 533.0868697722675 A 16.0 16.0 0 0 1 355.172470422477 535.2543422728788 L 360 520"/><path fill="rgb(240,230,200)" d="M 355.172470422477 535.2543422728788 A 16.0 16.0 0 0 1 360.0 504.0 L 360 520"/><circle cx="440" cy="520" r="16.0" stroke="rgb(220, 130, 50)" stroke-width="8.0"/><path fill="rgb(220, 130, 50)" d="M 440.0 504.0 A 16.0 16.0 0 0 1 440.0 536.0 L 440 520"/><path fill="rgb(240,230,200)" d="M 440.0 536.0 A 16.0 16.0 0 0 1 425.3999421363752 513.4549018052586 L 440 520"/><path fill="rgb(220, 130, 50)" d="M 425.3999421363752 513.4549018052586 A 16.0 16.0 0 0 1 426.5701531818888 511.30291919998047 L 440 520"/><path fill="rgb(240,230,200)" d="M 426.5701531818888 511.30291919998047 A 16.0 16.0 0 0 1 440.0 504.0 L 440 520"/><circle cx="520" cy="520" r="16.0" stroke="rgb(220, 130, 50)" stroke-width="8.0"/><circle cx="520" cy="520" r="16.0" fill="rgb(220, 130, 50)"/><circle cx="600" cy="520" r="16.0" stroke="rgb(220, 130, 50)" stroke-width="8.0"/><path fill="rgb(220, 130, 50)" d="M 600.0 504.0 A 16.0 16.0 0 1 1 584.2926668800503 523.0462577466348 L 600 520"/><path fill="rgb(240,230,200)" d="M 584.2926668800503 523.0462577466348 A 16.0 16.0 0 0 1 600.0 504.0 L 600 520"/><circle cx="40" cy="440" r="16.0" stroke="rgb(220, 130, 50)" stroke-width="8.0"/><path fill="rgb(240,230,200)" d="M 40.0 424.0 A 16.0 16.0 0 0 1 55.058240767672984 445.40827005453605 L 40 440"/><path fill="rgb(220, 130, 50)" d="M 55.058240767672984 445.40827005453605 A 16.0 16.0 0 0 1 32.90048259412865 454.3386489113769 L 40 440"/><path fill="rgb(240,230,200)" d="M 32.90048259412865 454.3386489113769 A 16.0 16.0 0 0 1 39.99999999999999 424.0 L 40 440"/><circle cx="120" cy="440" r="16.0" stroke="rgb(220, 130, 50)" stroke-width="8.0"/><path fill="rgb(240,230,200)" d="M 120.0 424.0 A 16.0 16.0 0 1 1 110.79490143650207 453.0868697722675 L 120 440"/><path fill="rgb(220, 130, 50)" d="M 110.79490143650207 453.0868697722675 A 16.0 16.0 0 0 1 120.0 424.0 L 120 440"/><circle cx="200" cy="440" r="16.0" stroke="rgb(220, 130, 50)" stroke-width="8.0"/><path fill="rgb(240,230,200)" d="M 200.0 424.0 A 16.0 16.0 0 0 1 208.17629887115376 426.2468862882048 L 200 440"/><path fill="rgb(220, 130, 50)" d="M 208.17629887115376 426.2468862882048 A 16.0 16.0 0 0 1 215.89443343615477 438.16506519362565 L 200 440"/><path fill="rgb(240,230,200)" d="M 215.89443343615477 438.16506519362565 A 16.0 16.0 0 1 1 200.0 424.0 L 200 440"/><circle cx="280" cy="440" r="16.0" stroke="rgb(220, 130, 50)" stroke-width="8.0"/><path fill="rgb(240,230,200)" d="M 280.0 424.0 A 16.0 16.0 0 1 1 268.0551484542086 429.3547887973509 L 280 440"/><path fill="rgb(220, 130, 50)" d="M 268.0551484542086 429.3547887973509 A 16.0 16.0 0 0 1 276.3543438575498 424.42087321795555 L 280 440"/><path fill="rgb(240,230,200)" d="M 276.3543438575498 424.42087321795555 A 16.0 16.0 0 0 1 279.99999999999994 424.0 L 280 440"/><circle cx="360" cy="440" r="16.0" stroke="rgb(220, 130, 50)" stroke-width="8.0"/><path fill="rgb(240,230,200)" d="M 360.0 424.0 A 16.0 16.0 0 0 1 371.9448515457914 429.3547887973509 L 360 440"/><path fill="rgb(220, 130, 50)" d="M 371.9448515457914 429.3547887973509 A 16.0 16.0 0 0 1 362.442388547502 455.8124867804856 L 360 440"/><path fill="rgb(240,230,200)" d="M 362.442388547502 455.8124867804856 A 16.0 16.0 0 1 1 360.0 424.0 L 360 440"/><circle cx="440" cy="440" r="16.0" stroke="rgb(220, 130, 50)" stroke-width="8.0"/><path fill="rgb(240,230,200)" d="M 440.0 424.0 A 16.0 16.0 0 0 1 443.6456561424502 424.42087321795555 L 440 440"/><path fill="rgb(220, 130, 50)" d="M 443.6456561424502 424.42087321795555 A 16.0 16.0 0 0 1 447.0995174058714 454.3386489113769 L 440 440"/><path fill="rgb(240,230,200)" d="M 447.0995174058714 454.3386489113769 A 16.0 16.0 0 0 1 426.5701531818888 431.30291919998047 L 440 440"/><path fill="rgb(220, 130, 50)" d="M 426.5701531818888 431.30291919998047 A 16.0 16.0 0 0 1 434.0189268505477 425.15996078236645 L 440 440"/><path fill="rgb(240,230,200)" d="M 434.0189268505477 425.15996078236645 A 16.0 16.0 0 0 1 440.0 424.0 L 440 440"/><circle cx="520" cy="440" r="16.0" stroke="rgb(220, 130, 50)" stroke-width="8.0"/><path fill="rgb(240,230,200)" d="M 520.0 424.0 A 16.0 16.0 0 1 1 504.94175923232706 445.40827005453605 L 520 440"/><path fill="rgb(220, 130, 50)" d="M 504.94175923232706 445.40827005453605 A 16.0 16.0 0 0 1 504.10556656384523 438.16506519362565 L 520 440"/><path fill="rgb(240,230,200)" d="M 504.10556656384523 438.16506519362565 A 16.0 16.0 0 0 1 520.0 424.0 L 520 440"/><circle cx="600" cy="440" r="16.0" stroke="rgb(220, 130, 50)" stroke-width="8.0"/><path fill="rgb(240,230,200)" d="M 600.0 424.0 A 16.0 16.0 0 1 1 592.9004825941287 454.3386489113769 L 600 440"/><path fill="rgb(220, 130, 50)" d="M 592.9004825941287 454.3386489113769 A 16.0 16.0 0 0 1 584.9417592323271 445.40827005453605 L 600 440"/><path fill="rgb(240,230,200)" d="M 584.9417592323271 445.40827005453605 A 16.0 16.0 0 0 1 600.0 424.0 L 600 440"/><circle cx="40" cy="360" r="16.0" stroke="rgb(220, 130, 50)" stroke-width="8.0"/><path fill="rgb(240,230,200)" d="M 40.0 344.0 A 16.0 16.0 0 0 1 55.70733311994968 363.0462577466347 L 40 360"/><path fill="rgb(220, 130, 50)" d="M 55.70733311994968 363.0462577466347 A 16.0 16.0 0 0 1 55.058240767672984 365.40827005453605 L 40 360"/><path fill="rgb(240,230,200)" d="M 55.058240767672984 365.40827005453605 A 16.0 16.0 0 0 1 24.57194407274974 355.7602959648534 L 40 360"/><path fill="rgb(220, 130, 50)" d="M 24.57194407274974 355.7602959648534 A 16.0 16.0 0 0 1 39.99999999999999 344.0 L 40 360"/><circle cx="200" cy="360" r="16.0" stroke="rgb(220, 130, 50)" stroke-width="8.0"/><path fill="rgb(240,230,200)" d="M 200.0 344.0 A 16.0 16.0 0 0 1 201.22478804538392 344.04694718106015 L 200 360"/><path fill="rgb(220, 130, 50)" d="M 201.22478804538392 344.04694718106015 A 16.0 16.0 0 0 1 214.60005786362478 353.4549018052586 L 200 360"/><path fill="rgb(240,230,200)" d="M 214.60005786362478 353.4549018052586 A 16.0 16.0 0 0 1 195.17247042247692 375.2543422728789 L 200 360"/><path fill="rgb(220, 130, 50)" d="M 195.17247042247692 375.2543422728789 A 16.0 16.0 0 0 1 188.0551484542086 349.3547887973509 L 200 360"/><path fill="rgb(240,230,200)" d="M 188.0551484542086 349.3547887973509 A 16.0 16.0 0 0 1 196.3543438575498 344.42087321795555 L 200 360"/><path fill="rgb(220, 130, 50)" d="M 196.3543438575498 344.42087321795555 A 16.0 16.0 0 0 1 199.99999999999997 344.0 L 200 360"/><circle cx="280" cy="360" r="16.0" stroke="rgb(75, 70, 65)" stroke-width="8.0"/><path fill="rgb(240,230,200)" d="M 280.0 344.0 A 16.0 16.0 0 0 1 285.9810731494523 345.15996078236645 L 280 360"/><path fill="rgb(220, 130, 50)" d="M 285.9810731494523 345.15996078236645 A 16.0 16.0 0 0 1 292.72468594037485 369.6996065754662 L 280 360"/><path fill="rgb(240,230,200)" d="M 292.72468594037485 369.6996065754662 A 16.0 16.0 0 0 1 287.0995174058714 374.3386489113769 L 280 360"/><path fill="rgb(220, 130, 50)" d="M 287.0995174058714 374.3386489113769 A 16.0 16.0 0 0 1 284.8275295775231 375.2543422728789 L 280 360"/><path fill="rgb(240,230,200)" d="M 284.8275295775231 375.2543422728789 A 16.0 16.0 0 0 1 281.22478804538395 375.95305281893985 L 280 360"/><path fill="rgb(75, 70, 65)" d="M 281.22478804538395 375.95305281893985 A 16.0 16.0 0 1 1 280.0 344.0 L 280 360"/><circle cx="360" cy="360" r="16.0" stroke="rgb(220, 130, 50)" stroke-width="8.0"/><path fill="rgb(240,230,200)" d="M 360.0 344.0 A 16.0 16.0 0 0 1 362.442388547502 375.8124867804856 L 360 360"/><path fill="rgb(220, 130, 50)" d="M 362.442388547502 375.8124867804856 A 16.0 16.0 0 0 1 357.557611452498 375.8124867804856 L 360 360"/><path fill="rgb(240,230,200)" d="M 357.557611452498 375.8124867804856 A 16.0 16.0 0 0 1 349.82012092277506 347.6561731228489 L 360 360"/><path fill="rgb(220, 130, 50)" d="M 349.82012092277506 347.6561731228489 A 16.0 16.0 0 0 1 358.77521195461605 344.04694718106015 L 360 360"/><path fill="rgb(240,230,200)" d="M 358.77521195461605 344.04694718106015 A 16.0 16.0 0 0 1 360.0 344.0 L 360 360"/><circle cx="440" cy="360" r="16.0" stroke="rgb(220, 130, 50)" stroke-width="8.0"/><path fill="rgb(240,230,200)" d="M 440.0 344.0 A 16.0 16.0 0 0 1 440.0 376.0 L 440 360"/><path fill="rgb(220, 130, 50)" d="M 440.0 376.0 A 16.0 16.0 0 0 1 428.90507998732414 371.5283454976126 L 440 360"/><path fill="rgb(240,230,200)" d="M 428.90507998732414 371.5283454976126 A 16.0 16.0 0 0 1 438.77521195461605 344.04694718106015 L 440 360"/><path fill="rgb(220, 130, 50)" d="M 438.77521195461605 344.04694718106015 A 16.0 16.0 0 0 1 440.0 344.0 L 440 360"/><circle cx="600" cy="360" r="16.0" stroke="rgb(220, 130, 50)" stroke-width="8.0"/><path fill="rgb(240,230,200)" d="M 600.0 344.0 A 16.0 16.0 0 0 1 613.4298468181112 351.30291919998047 L 600 360"/><path fill="rgb(220, 130, 50)" d="M 613.4298468181112 351.30291919998047 A 16.0 16.0 0 0 1 615.4280559272503 355.7602959648534 L 600 360"/><path fill="rgb(240,230,200)" d="M 615.4280559272503 355.7602959648534 A 16.0 16.0 0 1 1 584.2926668800503 363.0462577466347 L 600 360"/><path fill="rgb(220, 130, 50)" d="M 584.2926668800503 363.0462577466347 A 16.0 16.0 0 0 1 600.0 344.0 L 600 360"/><circle cx="40" cy="280" r="16.0" stroke="rgb(75, 70, 65)" stroke-width="8.0"/><path fill="rgb(240,230,200)" d="M 40.0 264.0 A 16.0 16.0 0 1 1 29.82012092277504 292.34382687715106 L 40 280"/><path fill="rgb(75, 70, 65)" d="M 29.82012092277504 292.34382687715106 A 16.0 16.0 0 0 1 39.99999999999999 264.0 L 40 280"/><circle cx="120" cy="280" r="16.0" stroke="rgb(220, 130, 50)" stroke-width="8.0"/><path fill="rgb(240,230,200)" d="M 120.0 264.0 A 16.0 16.0 0 0 1 134.05619601457508 287.6435170961962 L 120 280"/><path fill="rgb(220, 130, 50)" d="M 134.05619601457508 287.6435170961962 A 16.0 16.0 0 0 1 129.20509856349793 293.0868697722675 L 120 280"/><path fill="rgb(240,230,200)" d="M 129.20509856349793 293.0868697722675 A 16.0 16.0 0 1 1 120.0 264.0 L 120 280"/><circle cx="200" cy="280" r="16.0" stroke="rgb(75, 70, 65)" stroke-width="8.0"/><path fill="rgb(240,230,200)" d="M 200.0 264.0 A 16.0 16.0 0 0 1 215.42805592725023 284.2397040351466 L 200 280"/><path fill="rgb(75, 70, 65)" d="M 215.42805592725023 284.2397040351466 A 16.0 16.0 0 0 1 212.72468594037485 289.6996065754662 L 200 280"/><path fill="rgb(220, 130, 50)" d="M 212.72468594037485 289.6996065754662 A 16.0 16.0 0 0 1 211.9448515457914 290.645211202649 L 200 280"/><path fill="rgb(75, 70, 65)" d="M 211.9448515457914 290.645211202649 A 16.0 16.0 0 1 1 200.0 264.0 L 200 280"/><circle cx="280" cy="280" r="16.0" stroke="rgb(75, 70, 65)" stroke-width="8.0"/><path fill="rgb(240,230,200)" d="M 280.0 264.0 A 16.0 16.0 0 0 1 284.8275295775231 264.7456577271211 L 280 280"/><path fill="rgb(75, 70, 65)" d="M 284.8275295775231 264.7456577271211 A 16.0 16.0 0 0 1 294.6000578636248 273.4549018052586 L 280 280"/><path fill="rgb(220, 130, 50)" d="M 294.6000578636248 273.4549018052586 A 16.0 16.0 0 0 1 295.05824076767294 274.59172994546395 L 280 280"/><path fill="rgb(75, 70, 65)" d="M 295.05824076767294 274.59172994546395 A 16.0 16.0 0 0 1 295.89443343615477 278.1650651936256 L 280 280"/><path fill="rgb(220, 130, 50)" d="M 295.89443343615477 278.1650651936256 A 16.0 16.0 0 0 1 295.98825889681297 279.3871562609594 L 280 280"/><path fill="rgb(75, 70, 65)" d="M 295.98825889681297 279.3871562609594 A 16.0 16.0 0 0 1 281.22478804538395 295.95305281893985 L 280 280"/><path fill="rgb(240,230,200)" d="M 281.22478804538395 295.95305281893985 A 16.0 16.0 0 1 1 280.0 264.0 L 280 280"/><circle cx="360" cy="280" r="16.0" stroke="rgb(220, 130, 50)" stroke-width="8.0"/><path fill="rgb(240,230,200)" d="M 360.0 264.0 A 16.0 16.0 0 1 1 357.557611452498 295.8124867804856 L 360 280"/><path fill="rgb(220, 130, 50)" d="M 357.557611452498 295.8124867804856 A 16.0 16.0 0 0 1 344.0117411031871 280.6128437390406 L 360 280"/><path fill="rgb(240,230,200)" d="M 344.0117411031871 280.6128437390406 A 16.0 16.0 0 0 1 344.10556656384523 278.1650651936256 L 360 280"/><path fill="rgb(220, 130, 50)" d="M 344.10556656384523 278.1650651936256 A 16.0 16.0 0 0 1 349.82012092277506 267.65617312284894 L 360 280"/><path fill="rgb(240,230,200)" d="M 349.82012092277506 267.65617312284894 A 16.0 16.0 0 0 1 360.0 264.0 L 360 280"/><circle cx="440" cy="280" r="16.0" stroke="rgb(220, 130, 50)" stroke-width="8.0"/><path fill="rgb(240,230,200)" d="M 440.0 264.0 A 16.0 16.0 0 1 1 428.9050799873241 291.5283454976126 L 440 280"/><path fill="rgb(220, 130, 50)" d="M 428.9050799873241 291.5283454976126 A 16.0 16.0 0 0 1 428.0551484542086 290.645211202649 L 440 280"/><path fill="rgb(75, 70, 65)" d="M 428.0551484542086 290.645211202649 A 16.0 16.0 0 0 1 427.27531405962515 289.6996065754662 L 440 280"/><path fill="rgb(220, 130, 50)" d="M 427.27531405962515 289.6996065754662 A 16.0 16.0 0 0 1 431.82370112884627 266.2468862882048 L 440 280"/><path fill="rgb(240,230,200)" d="M 431.82370112884627 266.2468862882048 A 16.0 16.0 0 0 1 440.0 264.0 L 440 280"/><circle cx="520" cy="280" r="16.0" stroke="rgb(220, 130, 50)" stroke-width="8.0"/><path fill="rgb(240,230,200)" d="M 520.0 264.0 A 16.0 16.0 0 0 1 530.1798790772249 267.65617312284894 L 520 280"/><path fill="rgb(220, 130, 50)" d="M 530.1798790772249 267.65617312284894 A 16.0 16.0 0 0 1 533.4298468181112 271.30291919998047 L 520 280"/><path fill="rgb(240,230,200)" d="M 533.4298468181112 271.30291919998047 A 16.0 16.0 0 1 1 520.0 264.0 L 520 280"/><circle cx="40" cy="200" r="16.0" stroke="rgb(75, 70, 65)" stroke-width="8.0"/><path fill="rgb(240,230,200)" d="M 40.0 184.0 A 16.0 16.0 0 0 1 53.4298468181112 208.69708080001953 L 40 200"/><path fill="rgb(75, 70, 65)" d="M 53.4298468181112 208.69708080001953 A 16.0 16.0 0 0 1 29.820120922775047 212.3438268771511 L 40 200"/><path fill="rgb(240,230,200)" d="M 29.820120922775047 212.3438268771511 A 16.0 16.0 0 0 1 39.99999999999999 184.0 L 40 200"/><circle cx="120" cy="200" r="16.0" stroke="rgb(75, 70, 65)" stroke-width="8.0"/><path fill="rgb(240,230,200)" d="M 120.0 184.0 A 16.0 16.0 0 0 1 134.05619601457508 192.3564829038038 L 120 200"/><path fill="rgb(75, 70, 65)" d="M 134.05619601457508 192.3564829038038 A 16.0 16.0 0 0 1 131.9448515457914 210.64521120264902 L 120 200"/><path fill="rgb(240,230,200)" d="M 131.9448515457914 210.64521120264902 A 16.0 16.0 0 1 1 120.0 184.0 L 120 200"/><circle cx="360" cy="200" r="16.0" stroke="rgb(220, 130, 50)" stroke-width="8.0"/><path fill="rgb(240,230,200)" d="M 360.0 184.0 A 16.0 16.0 0 0 1 362.442388547502 184.18751321951444 L 360 200"/><path fill="rgb(75, 70, 65)" d="M 362.442388547502 184.18751321951444 A 16.0 16.0 0 0 1 375.9882588968129 199.38715626095942 L 360 200"/><path fill="rgb(240,230,200)" d="M 375.9882588968129 199.38715626095942 A 16.0 16.0 0 0 1 375.89443343615477 201.8349348063744 L 360 200"/><path fill="rgb(75, 70, 65)" d="M 375.89443343615477 201.8349348063744 A 16.0 16.0 0 0 1 364.82752957752314 215.2543422728789 L 360 200"/><path fill="rgb(220, 130, 50)" d="M 364.82752957752314 215.2543422728789 A 16.0 16.0 0 0 1 363.6456561424502 215.57912678204445 L 360 200"/><path fill="rgb(75, 70, 65)" d="M 363.6456561424502 215.57912678204445 A 16.0 16.0 0 0 1 348.0551484542086 210.64521120264902 L 360 200"/><path fill="rgb(240,230,200)" d="M 348.0551484542086 210.64521120264902 A 16.0 16.0 0 0 1 344.0117411031871 200.61284373904058 L 360 200"/><path fill="rgb(220, 130, 50)" d="M 344.0117411031871 200.61284373904058 A 16.0 16.0 0 0 1 360.0 184.0 L 360 200"/><circle cx="440" cy="200" r="16.0" stroke="rgb(220, 130, 50)" stroke-width="8.0"/><path fill="rgb(240,230,200)" d="M 440.0 184.0 A 16.0 16.0 0 0 1 447.0995174058714 185.66135108862312 L 440 200"/><path fill="rgb(75, 70, 65)" d="M 447.0995174058714 185.66135108862312 A 16.0 16.0 0 0 1 455.05824076767294 194.59172994546395 L 440 200"/><path fill="rgb(240,230,200)" d="M 455.05824076767294 194.59172994546395 A 16.0 16.0 0 1 1 430.7949014365021 186.9131302277325 L 440 200"/><path fill="rgb(75, 70, 65)" d="M 430.7949014365021 186.9131302277325 A 16.0 16.0 0 0 1 431.82370112884627 186.2468862882048 L 440 200"/><path fill="rgb(220, 130, 50)" d="M 431.82370112884627 186.2468862882048 A 16.0 16.0 0 0 1 432.9004825941286 185.66135108862312 L 440 200"/><path fill="rgb(75, 70, 65)" d="M 432.9004825941286 185.66135108862312 A 16.0 16.0 0 0 1 434.0189268505477 185.15996078236645 L 440 200"/><path fill="rgb(220, 130, 50)" d="M 434.0189268505477 185.15996078236645 A 16.0 16.0 0 0 1 440.0 184.0 L 440 200"/><circle cx="600" cy="200" r="16.0" stroke="rgb(75, 70, 65)" stroke-width="8.0"/><path fill="rgb(240,230,200)" d="M 600.0 184.0 A 16.0 16.0 0 0 1 612.7246859403748 190.30039342453378 L 600 200"/><path fill="rgb(75, 70, 65)" d="M 612.7246859403748 190.30039342453378 A 16.0 16.0 0 1 1 600.0 184.0 L 600 200"/><circle cx="40" cy="120" r="16.0" stroke="rgb(75, 70, 65)" stroke-width="8.0"/><path fill="rgb(75, 70, 65)" d="M 40.0 104.0 A 16.0 16.0 0 0 1 53.4298468181112 128.69708080001953 L 40 120"/><path fill="rgb(240,230,200)" d="M 53.4298468181112 128.69708080001953 A 16.0 16.0 0 0 1 50.17987907722496 132.3438268771511 L 40 120"/><path fill="rgb(75, 70, 65)" d="M 50.17987907722496 132.3438268771511 A 16.0 16.0 0 0 1 24.57194407274974 124.23970403514659 L 40 120"/><path fill="rgb(240,230,200)" d="M 24.57194407274974 124.23970403514659 A 16.0 16.0 0 0 1 39.99999999999999 104.0 L 40 120"/><circle cx="120" cy="120" r="16.0" stroke="rgb(75, 70, 65)" stroke-width="8.0"/><path fill="rgb(75, 70, 65)" d="M 120.0 104.0 A 16.0 16.0 0 0 1 134.05619601457508 112.3564829038038 L 120 120"/><path fill="rgb(240,230,200)" d="M 134.05619601457508 112.3564829038038 A 16.0 16.0 0 1 1 104.1055665638452 121.8349348063744 L 120 120"/><path fill="rgb(75, 70, 65)" d="M 104.1055665638452 121.8349348063744 A 16.0 16.0 0 0 1 104.01174110318705 119.38715626095943 L 120 120"/><path fill="rgb(240,230,200)" d="M 104.01174110318705 119.38715626095943 A 16.0 16.0 0 0 1 120.0 104.0 L 120 120"/><circle cx="200" cy="120" r="16.0" stroke="rgb(75, 70, 65)" stroke-width="8.0"/><path fill="rgb(75, 70, 65)" d="M 200.0 104.0 A 16.0 16.0 0 0 1 215.42805592725023 124.23970403514659 L 200 120"/><path fill="rgb(240,230,200)" d="M 215.42805592725023 124.23970403514659 A 16.0 16.0 0 0 1 184.01174110318703 119.38715626095943 L 200 120"/><path fill="rgb(75, 70, 65)" d="M 184.01174110318703 119.38715626095943 A 16.0 16.0 0 0 1 200.0 104.0 L 200 120"/><circle cx="280" cy="120" r="16.0" stroke="rgb(75, 70, 65)" stroke-width="8.0"/><path fill="rgb(75, 70, 65)" d="M 280.0 104.0 A 16.0 16.0 0 0 1 284.8275295775231 104.74565772712111 L 280 120"/><path fill="rgb(240,230,200)" d="M 284.8275295775231 104.74565772712111 A 16.0 16.0 0 0 1 288.1762988711538 133.7531137117952 L 280 120"/><path fill="rgb(75, 70, 65)" d="M 288.1762988711538 133.7531137117952 A 16.0 16.0 0 0 1 271.8237011288462 133.75311371179524 L 280 120"/><path fill="rgb(240,230,200)" d="M 271.8237011288462 133.75311371179524 A 16.0 16.0 0 0 1 280.0 104.0 L 280 120"/><circle cx="360" cy="120" r="16.0" stroke="rgb(75, 70, 65)" stroke-width="8.0"/><path fill="rgb(75, 70, 65)" d="M 360.0 104.0 A 16.0 16.0 0 0 1 362.442388547502 104.18751321951441 L 360 120"/><path fill="rgb(240,230,200)" d="M 362.442388547502 104.18751321951441 A 16.0 16.0 0 0 1 369.2050985634979 106.91313022773251 L 360 120"/><path fill="rgb(75, 70, 65)" d="M 369.2050985634979 106.91313022773251 A 16.0 16.0 0 0 1 375.4280559272502 115.76029596485341 L 360 120"/><path fill="rgb(220, 130, 50)" d="M 375.4280559272502 115.76029596485341 A 16.0 16.0 0 0 1 375.7073331199497 116.9537422533653 L 360 120"/><path fill="rgb(75, 70, 65)" d="M 375.7073331199497 116.9537422533653 A 16.0 16.0 0 0 1 365.9810731494523 134.84003921763352 L 360 120"/><path fill="rgb(240,230,200)" d="M 365.9810731494523 134.84003921763352 A 16.0 16.0 0 0 1 358.77521195461605 135.95305281893985 L 360 120"/><path fill="rgb(75, 70, 65)" d="M 358.77521195461605 135.95305281893985 A 16.0 16.0 0 0 1 345.3999421363752 126.54509819474144 L 360 120"/><path fill="rgb(240,230,200)" d="M 345.3999421363752 126.54509819474144 A 16.0 16.0 0 0 1 344.5719440727498 124.23970403514659 L 360 120"/><path fill="rgb(75, 70, 65)" d="M 344.5719440727498 124.23970403514659 A 16.0 16.0 0 0 1 360.0 104.0 L 360 120"/><circle cx="440" cy="120" r="16.0" stroke="rgb(75, 70, 65)" stroke-width="8.0"/><path fill="rgb(75, 70, 65)" d="M 440.0 104.0 A 16.0 16.0 0 0 1 443.6456561424502 135.57912678204445 L 440 120"/><path fill="rgb(240,230,200)" d="M 443.6456561424502 135.57912678204445 A 16.0 16.0 0 1 1 440.0 104.0 L 440 120"/><circle cx="520" cy="120" r="16.0" stroke="rgb(75, 70, 65)" stroke-width="8.0"/><path fill="rgb(75, 70, 65)" d="M 520.0 104.0 A 16.0 16.0 0 1 1 512.9004825941287 105.66135108862312 L 520 120"/><path fill="rgb(240,230,200)" d="M 512.9004825941287 105.66135108862312 A 16.0 16.0 0 0 1 520.0 104.0 L 520 120"/><circle cx="600" cy="120" r="16.0" stroke="rgb(75, 70, 65)" stroke-width="8.0"/><path fill="rgb(75, 70, 65)" d="M 600.0 104.0 A 16.0 16.0 0 0 1 612.7246859403748 110.3003934245338 L 600 120"/><path fill="rgb(240,230,200)" d="M 612.7246859403748 110.3003934245338 A 16.0 16.0 0 1 1 586.5701531818888 128.69708080001953 L 600 120"/><path fill="rgb(75, 70, 65)" d="M 586.5701531818888 128.69708080001953 A 16.0 16.0 0 0 1 590.7949014365021 106.91313022773251 L 600 120"/><path fill="rgb(240,230,200)" d="M 590.7949014365021 106.91313022773251 A 16.0 16.0 0 0 1 600.0 104.0 L 600 120"/><circle cx="40" cy="40" r="16.0" stroke="rgb(75, 70, 65)" stroke-width="8.0"/><path fill="rgb(75, 70, 65)" d="M 40.0 24.0 A 16.0 16.0 0 0 1 50.17987907722496 52.34382687715109 L 40 40"/><path fill="rgb(240,230,200)" d="M 50.17987907722496 52.34382687715109 A 16.0 16.0 0 1 1 39.99999999999999 24.0 L 40 40"/><circle cx="120" cy="40" r="16.0" stroke="rgb(75, 70, 65)" stroke-width="8.0"/><path fill="rgb(75, 70, 65)" d="M 120.0 24.0 A 16.0 16.0 0 0 1 128.17629887115376 53.753113711795216 L 120 40"/><path fill="rgb(240,230,200)" d="M 128.17629887115376 53.753113711795216 A 16.0 16.0 0 0 1 116.3543438575498 55.57912678204446 L 120 40"/><path fill="rgb(75, 70, 65)" d="M 116.3543438575498 55.57912678204446 A 16.0 16.0 0 0 1 104.1055665638452 41.83493480637441 L 120 40"/><path fill="rgb(240,230,200)" d="M 104.1055665638452 41.83493480637441 A 16.0 16.0 0 0 1 120.0 24.0 L 120 40"/><circle cx="200" cy="40" r="16.0" stroke="rgb(75, 70, 65)" stroke-width="8.0"/><path fill="rgb(75, 70, 65)" d="M 200.0 24.0 A 16.0 16.0 0 0 1 215.89443343615477 41.834934806374406 L 200 40"/><path fill="rgb(240,230,200)" d="M 215.89443343615477 41.834934806374406 A 16.0 16.0 0 0 1 214.60005786362478 46.545098194741435 L 200 40"/><path fill="rgb(75, 70, 65)" d="M 214.60005786362478 46.545098194741435 A 16.0 16.0 0 0 1 196.3543438575498 55.57912678204447 L 200 40"/><path fill="rgb(240,230,200)" d="M 196.3543438575498 55.57912678204447 A 16.0 16.0 0 0 1 200.0 24.0 L 200 40"/><circle cx="280" cy="40" r="16.0" stroke="rgb(75, 70, 65)" stroke-width="8.0"/><path fill="rgb(75, 70, 65)" d="M 280.0 24.0 A 16.0 16.0 0 0 1 295.7073331199497 36.953742253365306 L 280 40"/><path fill="rgb(240,230,200)" d="M 295.7073331199497 36.953742253365306 A 16.0 16.0 0 0 1 265.3999421363752 46.54509819474144 L 280 40"/><path fill="rgb(75, 70, 65)" d="M 265.3999421363752 46.54509819474144 A 16.0 16.0 0 0 1 264.2926668800503 36.9537422533653 L 280 40"/><path fill="rgb(240,230,200)" d="M 264.2926668800503 36.9537422533653 A 16.0 16.0 0 0 1 264.94175923232706 34.591729945463946 L 280 40"/><path fill="rgb(75, 70, 65)" d="M 264.94175923232706 34.591729945463946 A 16.0 16.0 0 0 1 265.94380398542495 32.35648290380378 L 280 40"/><path fill="rgb(240,230,200)" d="M 265.94380398542495 32.35648290380378 A 16.0 16.0 0 0 1 267.2753140596252 30.300393424533777 L 280 40"/><path fill="rgb(75, 70, 65)" d="M 267.2753140596252 30.300393424533777 A 16.0 16.0 0 0 1 268.90507998732414 28.47165450238739 L 280 40"/><path fill="rgb(240,230,200)" d="M 268.90507998732414 28.47165450238739 A 16.0 16.0 0 0 1 280.00000000000006 24.0 L 280 40"/><circle cx="360" cy="40" r="16.0" stroke="rgb(75, 70, 65)" stroke-width="8.0"/><path fill="rgb(75, 70, 65)" d="M 360.0 24.0 A 16.0 16.0 0 0 1 371.0949200126759 28.47165450238741 L 360 40"/><path fill="rgb(240,230,200)" d="M 371.0949200126759 28.47165450238741 A 16.0 16.0 0 1 1 344.2926668800503 36.95374225336532 L 360 40"/><path fill="rgb(75, 70, 65)" d="M 344.2926668800503 36.95374225336532 A 16.0 16.0 0 0 1 344.94175923232706 34.59172994546396 L 360 40"/><path fill="rgb(240,230,200)" d="M 344.94175923232706 34.59172994546396 A 16.0 16.0 0 0 1 345.9438039854249 32.356482903803794 L 360 40"/><path fill="rgb(75, 70, 65)" d="M 345.9438039854249 32.356482903803794 A 16.0 16.0 0 0 1 347.27531405962515 30.300393424533787 L 360 40"/><path fill="rgb(240,230,200)" d="M 347.27531405962515 30.300393424533787 A 16.0 16.0 0 0 1 348.90507998732414 28.471654502387402 L 360 40"/><path fill="rgb(75, 70, 65)" d="M 348.90507998732414 28.471654502387402 A 16.0 16.0 0 0 1 360.0 24.0 L 360 40"/><circle cx="440" cy="40" r="16.0" stroke="rgb(75, 70, 65)" stroke-width="8.0"/><path fill="rgb(75, 70, 65)" d="M 440.0 24.0 A 16.0 16.0 0 0 1 449.2050985634979 26.913130227732516 L 440 40"/><path fill="rgb(240,230,200)" d="M 449.2050985634979 26.913130227732516 A 16.0 16.0 0 0 1 451.0949200126759 28.47165450238741 L 440 40"/><path fill="rgb(75, 70, 65)" d="M 451.0949200126759 28.47165450238741 A 16.0 16.0 0 0 1 454.6000578636248 46.545098194741435 L 440 40"/><path fill="rgb(240,230,200)" d="M 454.6000578636248 46.545098194741435 A 16.0 16.0 0 0 1 445.9810731494523 54.84003921763352 L 440 40"/><path fill="rgb(75, 70, 65)" d="M 445.9810731494523 54.84003921763352 A 16.0 16.0 0 0 1 438.77521195461605 55.95305281893985 L 440 40"/><path fill="rgb(240,230,200)" d="M 438.77521195461605 55.95305281893985 A 16.0 16.0 0 0 1 431.82370112884627 53.753113711795216 L 440 40"/><path fill="rgb(75, 70, 65)" d="M 431.82370112884627 53.753113711795216 A 16.0 16.0 0 0 1 426.5701531818888 48.697080800019535 L 440 40"/><path fill="rgb(240,230,200)" d="M 426.5701531818888 48.697080800019535 A 16.0 16.0 0 0 1 440.0 24.0 L 440 40"/><circle cx="520" cy="40" r="16.0" stroke="rgb(75, 70, 65)" stroke-width="8.0"/><path fill="rgb(75, 70, 65)" d="M 520.0 24.0 A 16.0 16.0 0 0 1 527.0995174058713 25.661351088623114 L 520 40"/><path fill="rgb(240,230,200)" d="M 527.0995174058713 25.661351088623114 A 16.0 16.0 0 0 1 531.0949200126759 28.47165450238741 L 520 40"/><path fill="rgb(75, 70, 65)" d="M 531.0949200126759 28.47165450238741 A 16.0 16.0 0 0 1 514.0189268505477 54.84003921763352 L 520 40"/><path fill="rgb(240,230,200)" d="M 514.0189268505477 54.84003921763352 A 16.0 16.0 0 0 1 515.1724704224769 24.745657727121113 L 520 40"/><path fill="rgb(75, 70, 65)" d="M 515.1724704224769 24.745657727121113 A 16.0 16.0 0 0 1 517.557611452498 24.187513219514422 L 520 40"/><path fill="rgb(240,230,200)" d="M 517.557611452498 24.187513219514422 A 16.0 16.0 0 0 1 520.0 24.0 L 520 40"/><circle cx="600" cy="40" r="16.0" stroke="rgb(75, 70, 65)" stroke-width="8.0"/><path fill="rgb(75, 70, 65)" d="M 600.0 24.0 A 16.0 16.0 0 0 1 611.0949200126759 28.47165450238741 L 600 40"/><path fill="rgb(240,230,200)" d="M 611.0949200126759 28.47165450238741 A 16.0 16.0 0 0 1 594.0189268505477 54.84003921763352 L 600 40"/><path fill="rgb(75, 70, 65)" d="M 594.0189268505477 54.84003921763352 A 16.0 16.0 0 0 1 595.1724704224769 24.745657727121113 L 600 40"/><path fill="rgb(240,230,200)" d="M 595.1724704224769 24.745657727121113 A 16.0 16.0 0 0 1 597.557611452498 24.187513219514422 L 600 40"/><path fill="rgb(75, 70, 65)" d="M 597.557611452498 24.187513219514422 A 16.0 16.0 0 0 1 600.0 24.0 L 600 40"/></svg>